<svg viewBox="0 0 24 24" fill="none" xmlns="http://www.w3.org/2000/svg" stroke-width="1.75"><path d="M13.214 6.06839L13.5066 6.69583M14.6769 9.20561L14.9695 9.83305M16.1398 12.3428L16.4324 12.9703M17.6027 15.48L17.8953 16.1075M8.31793 15.2264L12.71 13.1783M9.19567 17.1087L11.7054 15.9384M1.94117 10.5611C1.42164 10.8034 1.19662 11.4216 1.43887 11.9412L2.61934 14.4727C3.10404 14.5145 3.56916 14.6833 3.96785 14.9621C4.36653 15.2409 4.6847 15.6199 4.8903 16.0608C5.09591 16.5017 5.18168 16.9891 5.13899 17.4737C5.0963 17.9583 4.92665 18.4231 4.64713 18.8213L5.8276 21.3528C6.06986 21.8723 6.68812 22.0974 7.20764 21.8551L21.6388 15.1257C22.1584 14.8835 22.3834 14.2652 22.1411 13.7457L20.9607 11.2142C20.476 11.1723 20.0109 11.0035 19.6122 10.7247C19.2135 10.4459 18.8953 10.067 18.6897 9.62605C18.4841 9.18513 18.3983 8.69781 18.441 8.21319C18.4837 7.72856 18.6534 7.26375 18.9329 6.86556L17.7524 4.33404C17.5102 3.81451 16.8919 3.58949 16.3724 3.83174L1.94117 10.5611Z" stroke="url(#paint0_linear_2031_80163)" stroke-linecap="round" stroke-linejoin="round"></path><defs><linearGradient id="paint0_linear_2031_80163" x1="8.67734" y1="23.2323" x2="22.5049" y2="9.10217" gradientUnits="userSpaceOnUse"><stop offset="0.0833333" stop-color="#793A75"></stop><stop offset="1" stop-color="#9B2352"></stop></linearGradient></defs></svg>