<svg viewBox="0 0 24 24" fill="none" xmlns="http://www.w3.org/2000/svg" stroke-width="1.75"><path d="M14.5503 1.05823C13.7556 1.20428 12.9265 1.66392 12.4025 2.24814L12.2134 2.45863L11.8913 2.3942C11.0192 2.21378 10.1601 2.45863 9.5501 3.06003C9.0475 3.55834 8.81553 4.08241 8.78116 4.80839L8.75968 5.25085L8.57926 5.37543C8.48046 5.44416 8.29145 5.61599 8.15399 5.76204C7.45808 6.51379 7.29055 7.60061 7.72012 8.54137L7.82322 8.76905H7.40224L7.42372 8.90651C7.44519 9.05686 8.81553 22.8418 8.81553 22.9063C8.81553 22.9277 11.612 22.9449 15.1904 22.9449H21.5695L21.5953 22.7602C21.6082 22.6614 21.9175 19.5642 22.2826 15.8785C22.6478 12.1927 22.957 9.08693 22.9742 8.97095L23 8.76905H22.8196C22.6134 8.76905 22.6134 8.78623 22.8024 8.33947C22.957 7.97434 22.9957 7.3042 22.8883 6.88322C22.7337 6.28612 22.3127 5.68472 21.8273 5.37113L21.6168 5.23367V4.86853C21.6168 4.67093 21.5867 4.39171 21.548 4.24565C21.2087 2.93975 19.877 2.11497 18.5367 2.3856L18.1888 2.45434L17.9139 2.17082C17.0461 1.26442 15.7445 0.83485 14.5503 1.05823ZM15.955 2.40708C16.333 2.52736 16.8442 2.87532 17.102 3.18461C17.218 3.32207 17.4113 3.60989 17.5358 3.82467C17.6733 4.06523 17.7807 4.20269 17.8108 4.18551C17.8365 4.16833 17.9654 4.08671 18.0943 4.0008C18.6484 3.62707 18.9921 3.54545 19.4346 3.67432C19.7395 3.76024 20.0875 4.06523 20.225 4.36593C20.414 4.76543 20.3581 5.18212 20.0102 5.98112C19.9844 6.03697 20.0488 6.06704 20.3581 6.14866C21.0412 6.32908 21.3204 6.51809 21.5266 6.93048C21.853 7.57913 21.5781 8.3137 20.8908 8.63588L20.6502 8.74757H15.2162C10.8002 8.74757 9.752 8.73898 9.61883 8.69172C9.36968 8.60151 9.06468 8.33518 8.92292 8.07743C8.80694 7.87124 8.79405 7.80681 8.79405 7.48033C8.79405 7.16674 8.81123 7.08512 8.91003 6.89611C9.03032 6.67273 9.24081 6.45365 9.4513 6.34626C9.52003 6.31189 9.75629 6.23028 9.97967 6.17014C10.203 6.1057 10.3878 6.04986 10.3964 6.04126C10.4049 6.03697 10.3405 5.85655 10.2546 5.65035C9.97108 4.96733 10.0097 4.47762 10.3706 4.06523C10.6885 3.70439 11.1782 3.54545 11.6421 3.65714C11.771 3.68721 12.0115 3.80749 12.2177 3.94495C12.4153 4.07382 12.5872 4.18551 12.6044 4.1984C12.6215 4.20699 12.7375 4.03516 12.8707 3.81608C12.9996 3.597 13.1714 3.33496 13.253 3.23616C13.6138 2.80659 14.1293 2.48011 14.6491 2.34694C14.9799 2.26103 15.5856 2.2911 15.955 2.40708ZM11.0493 10.0878C11.0493 10.1093 11.1739 12.6266 11.3285 15.6852C11.4832 18.7437 11.6077 21.3383 11.6077 21.45V21.6562H9.97537V21.5574C9.97108 21.5059 9.71763 18.8984 9.40404 15.7582L8.83271 10.0578H9.94101C10.551 10.0578 11.0493 10.0706 11.0493 10.0878ZM14.5718 12.0252L14.4343 12.0553C13.8716 12.167 13.1714 12.5063 12.7418 12.8758C12.6129 12.9831 12.5013 13.0691 12.4927 13.0605C12.4841 13.0519 12.4583 12.5321 12.4282 11.9049C12.4025 11.2777 12.3681 10.6076 12.3509 10.41L12.3251 10.0578H14.5718V12.0252ZM18.0513 10.2167C18.0513 10.41 17.9225 12.9316 17.9096 13.0218C17.9053 13.0648 17.8494 13.039 17.7292 12.9316C17.2695 12.5235 16.6166 12.197 15.9808 12.0596L15.8605 12.0338V10.0578H18.0513V10.2167ZM21.5523 10.2382C21.5352 10.3842 20.414 21.5875 20.414 21.6433C20.414 21.6519 20.0488 21.6562 19.5978 21.6562H18.7816V21.5574C18.7816 21.5059 18.9062 18.9585 19.0608 15.8999C19.2155 12.8414 19.34 10.2725 19.34 10.1952V10.0578H21.5781L21.5523 10.2382ZM15.8133 13.344C16.7025 13.5545 17.4542 14.3105 17.6948 15.2255C17.7936 15.6078 17.7807 16.1878 17.6647 16.5658C17.407 17.3949 16.7497 18.0521 15.9249 18.3055C15.5555 18.4172 14.9326 18.4301 14.5632 18.3313C13.8372 18.1337 13.2186 17.6268 12.9051 16.9739C12.7032 16.5443 12.6387 16.2737 12.6387 15.8226C12.6387 15.4102 12.7203 15.0709 12.9265 14.6542C13.2186 14.0528 13.9103 13.5029 14.5804 13.344C14.894 13.2667 15.4825 13.2667 15.8133 13.344ZM13.0554 19.0444C13.3604 19.2506 13.9145 19.4998 14.2496 19.5771L14.5718 19.6544V21.6562H12.9094L12.8578 20.4835C12.832 19.8434 12.7977 19.2119 12.7805 19.0831C12.7547 18.8253 12.7375 18.8296 13.0554 19.0444ZM17.5573 20.157C17.523 20.8486 17.4929 21.4715 17.4929 21.5359V21.6562H15.8605V19.6458L16.0753 19.5986C16.4318 19.5212 16.9387 19.3065 17.2781 19.0874C17.4542 18.9714 17.6046 18.8812 17.6132 18.8855C17.6218 18.8941 17.596 19.4654 17.5573 20.157Z" fill="url(#paint0_linear_2031_80165)"></path><path d="M15.3493 4.97163C14.6148 5.16923 14.0048 5.86514 13.9403 6.57393L13.9145 6.83597H15.2162V6.73288C15.2162 6.48372 15.5555 6.19161 15.8519 6.19161C16.1183 6.19161 16.3932 6.4107 16.4662 6.67273L16.5092 6.83597H17.7635L17.742 6.56534C17.712 6.20021 17.5101 5.78352 17.218 5.48712C16.7368 4.99311 16.0152 4.79121 15.3493 4.97163Z" fill="url(#paint1_linear_2031_80165)"></path><path d="M3.63918 17.9232C3.12799 18.1036 2.65546 18.5461 2.47934 19.0143C2.4192 19.1604 2.37624 19.2076 2.28174 19.2291C2.2173 19.2463 2.04977 19.3279 1.9123 19.4181C0.696615 20.2043 0.696615 21.8581 1.90801 22.6485C2.35906 22.9363 2.47504 22.9535 4.37375 22.9363L6.04908 22.9234L6.37556 22.7602C7.59984 22.1588 7.84899 20.5651 6.86097 19.6458C6.71492 19.5083 6.49154 19.3494 6.35838 19.2936C6.13929 19.1948 6.10922 19.1647 5.98465 18.8984C5.80423 18.5332 5.44339 18.181 5.04818 17.992C4.79044 17.8717 4.70452 17.8545 4.3265 17.8459C3.97855 17.833 3.84967 17.8459 3.63918 17.9232ZM4.61002 19.2205C4.83769 19.3709 4.90642 19.5513 4.90642 20.0109V20.4105H5.3317C5.69683 20.4105 5.76986 20.4233 5.89873 20.5093C6.06627 20.6209 6.19514 20.8486 6.19514 21.0333C6.19514 21.2138 6.06197 21.4457 5.89444 21.5617C5.75268 21.6562 5.7355 21.6562 4.27495 21.6562C2.99483 21.6562 2.77145 21.6476 2.64687 21.5875C2.2216 21.3856 2.17434 20.8014 2.56096 20.5264C2.67265 20.4491 2.76715 20.4276 3.14518 20.4105L3.59623 20.389L3.61771 19.9594C3.64348 19.4783 3.69503 19.3494 3.93129 19.2076C4.1246 19.0874 4.4253 19.096 4.61002 19.2205Z" fill="url(#paint2_linear_2031_80165)"></path><defs><linearGradient id="paint0_linear_2031_80165" x1="3.1859" y1="26.2367" x2="27.3551" y2="19.9249" gradientUnits="userSpaceOnUse"><stop offset="0.0833333" stop-color="#793A75"></stop><stop offset="1" stop-color="#9B2352"></stop></linearGradient><linearGradient id="paint1_linear_2031_80165" x1="3.1859" y1="26.2367" x2="27.3551" y2="19.9249" gradientUnits="userSpaceOnUse"><stop offset="0.0833333" stop-color="#793A75"></stop><stop offset="1" stop-color="#9B2352"></stop></linearGradient><linearGradient id="paint2_linear_2031_80165" x1="3.1859" y1="26.2367" x2="27.3551" y2="19.9249" gradientUnits="userSpaceOnUse"><stop offset="0.0833333" stop-color="#793A75"></stop><stop offset="1" stop-color="#9B2352"></stop></linearGradient></defs></svg>